<svg xmlns="http://www.w3.org/2000/svg" width="120" height="120" viewBox="0 0 120 120">
  <defs>
    <linearGradient id="grad1" x1="0%" y1="0%" x2="100%" y2="100%">
      <stop offset="0%" style="stop-color:#4f46e5;stop-opacity:1" />
      <stop offset="100%" style="stop-color:#7c3aed;stop-opacity:1" />
    </linearGradient>
  </defs>
  <circle cx="60" cy="60" r="50" fill="url(#grad1)" />
  <text x="60" y="65" font-family="Arial, sans-serif" font-size="32" font-weight="bold" fill="white" text-anchor="middle">RAS</text>
  <path d="M60,14 A46,46 0 1,1 14,60 A46,46 0 1,1 60,14 Z" stroke="white" stroke-width="2" fill="none" />
  <path d="M60,20 A40,40 0 1,1 20,60 A40,40 0 1,1 60,20 Z" stroke="white" stroke-width="1" fill="none" />
  <path d="M41,80 L45,76 L61,98 L77,76 L81,80 L61,106 Z" fill="white" />
  <path d="M41,40 L45,44 L61,22 L77,44 L81,40 L61,14 Z" fill="white" />
</svg>
